<?xml version="1.0" encoding="UTF-8" standalone="no"?>
<svg width="427px" height="443px" viewBox="0 0 427 443" version="1.1" xmlns="http://www.w3.org/2000/svg" xmlns:xlink="http://www.w3.org/1999/xlink">
    <defs></defs>
    <g id="funfunfun" fill-rule="evenodd">
        <g  transform="translate(213.500000, 221.500000) scale(1, -1) translate(-213.500000, -221.500000) ">
            <path d="M256.3,440.5 C258.8,437.7 262.2,431.2 269.4,415 C274.7,403 282,389.8 283.5,389.3 C285.3,388.8 286.9,399.6 287.3,414.5 C287.7,425.9 288.8,433.7 290.5,435.8 C290.7,436 295,436.8 300.1,437.5 C311.9,439.3 322.4,439.4 323.8,437.8 C324.7,436.6 324.1,406.3 322.5,375 C322.2,369.2 321.8,353.9 321.6,341 C321.1,316.8 320.1,306 318,303.5 C317,302.3 313.9,302 302.6,302 C294.9,302 288,302.4 287.4,302.8 C286.6,303.4 279.2,316.2 275.7,323 C275.3,323.8 273.4,327.2 271.5,330.5 C269.5,333.8 266.6,339.2 265,342.6 C262.1,348.8 259.5,351.8 258.2,350.6 C257.9,350.2 257.5,346.9 257.4,343.2 C257.2,333.3 255.3,316.2 253.7,310.5 C252.5,305.9 252.1,305.5 248,304.3 C245.7,303.6 237.9,302.9 230.7,302.8 L217.7,302.5 L216.8,305.5 C216.3,307.2 216.2,318 216.6,329.5 C216.9,341.1 217.6,370 218,393.7 C218.7,431.1 219,437.3 220.4,439.5 C222,441.9 222.4,442 234.8,442.3 C241.8,442.4 248.9,442.7 250.7,442.8 C253,442.9 254.6,442.3 256.3,440.5 L256.3,440.5 Z M87.5,439.3 C90.8,438.9 94.2,438.1 95.1,437.5 C99.8,434.6 102.4,421.8 99.7,415.1 C98.8,412.9 98.3,410.4 98.6,409.5 C99.5,407.1 97,402 94.6,401.5 C93.5,401.2 85.5,400.8 77,400.5 C47.1,399.4 47.7,399.5 46.4,397.4 C45.7,396.4 44.8,393.3 44.5,390.5 C43.5,382.9 44.6,382.5 62.7,384.1 C77,385.3 77.1,385.3 79.3,383.1 C81.1,381.3 81.6,379.6 81.9,372.7 C82.3,363.5 80.3,351.1 78.3,350.3 C77.6,350 70.3,349.7 62,349.6 C43.4,349.5 43.8,349.7 42.8,336.7 C41.3,316.3 40.2,308.2 38.5,305.3 L36.7,302.3 L22.7,301.6 C15,301.2 8.3,301.3 7.9,301.7 C6.9,302.7 6.9,356.5 8,399.2 C8.7,426.1 9.2,432.4 10.5,435 C11.4,436.7 12.6,438.3 13.3,438.4 C20.8,440.5 25.7,440.8 52,440.5 C68.2,440.3 84.2,439.8 87.5,439.3 L87.5,439.3 Z M138.2,439.7 C140.8,439 143.2,438.1 143.5,437.8 C143.9,437.4 144.3,416.3 144.4,390.8 C144.6,351.4 144.8,344 146.2,341 C148.3,336.1 150.6,334 153.8,334 C160.5,334.1 165.1,342.9 168,361 C168.7,365.1 169.6,369.2 170.1,370.1 C171.5,372.8 172.3,385.3 172.7,410.2 C173,429 173.4,434 174.5,435 C175.3,435.6 178.5,436.4 181.7,436.6 C184.9,436.8 190.7,437.3 194.5,437.6 C206.1,438.6 205.3,441.9 205.1,390.8 C204.9,343.5 203.7,328 199.7,318.9 C197.1,312.9 188.2,304.1 182.1,301.2 C176.8,298.7 175.7,298.6 162.5,298.8 C139.8,299.2 126.7,303.4 114.7,314.2 C103.1,324.6 102.7,326.6 102.8,379.2 C102.8,421.8 103.4,429.3 106.9,435 C109.1,438.6 109.9,439 116,439.1 C119,439.1 122.6,439.6 124,440 C127.7,441.2 132.9,441.1 138.2,439.7 L138.2,439.7 Z M407.8,439.4 L417,438.8 L417,423.5 C417,409.9 416.8,408.1 415.3,407.4 C414.3,407 403.8,406.4 392,406.1 L370.5,405.5 L369.3,398.5 C367.9,390.5 368.4,386.5 370.8,385.4 C371.7,385 379.4,384.5 387.8,384.2 C400.9,383.8 403,383.5 403.1,382.1 C403.3,380.4 403.1,377.8 402.1,363.5 L401.5,354.5 L385.7,354.5 C372.8,354.5 369.8,354.2 369,353 C366.6,349.4 365.8,342.3 365.6,325.3 C365.6,315.3 365.1,306.8 364.7,306.4 C362.8,304.5 355.9,303.4 347.2,303.6 C342,303.7 337.5,304.1 337.2,304.5 C336.1,305.6 337,431 338.1,435.2 C338.8,438.1 339.7,439.1 341.8,439.6 C343.3,439.9 345,440.3 345.5,440.5 C347,440.9 396.9,440 407.8,439.4 L407.8,439.4 Z M224.3,289.4 C224.6,289 230.2,288.6 236.7,288.4 C284.2,287 296.7,286.4 297.8,285.6 C298.6,285.2 299,283.7 298.7,282.5 C298.5,281.2 298.6,276.2 299,271.3 C299.4,265.9 299.3,261.6 298.7,260.3 C297.6,257.9 294.7,256.5 293,257.5 C292.5,257.8 283.7,258.1 273.5,258.1 C262.4,258.1 255,258.5 255,259 C255,259.6 258.6,260 263,260 C267.6,260 271.9,260.5 273,261.2 C274.5,262.2 275.2,262.2 276.2,261.2 C277.9,259.5 295,259.5 295.1,261.3 C295.5,265.4 295.1,282.2 294.6,282.7 C294.3,283 283.9,283.2 271.4,283.1 C251,282.9 248.6,283 246.8,284.7 C245,286.3 244.6,286.3 240.5,284.8 C236.2,283.3 231.4,283.5 226.9,285.4 C224.5,286.4 223.6,277.5 225.7,273.9 C227,271.7 227.1,271 225.8,268.4 C224.2,265.3 224,245 225.5,237.8 C225.9,235.7 225.8,234 225.4,234 C223.3,234 222.1,227.8 222.1,216 C222.1,209.1 221.8,194.5 221.6,183.5 C221.3,172.5 221.4,162.9 221.9,162.2 C222.5,161.2 224.1,161.3 229.5,162.5 C233.2,163.4 236.9,163.9 237.7,163.6 C240.4,162.5 238.4,160.5 233.9,159.7 C222.2,157.6 219.4,157.3 218.7,157.7 C218.2,158 218.1,159.9 218.5,162 C218.9,164.1 218.7,166.1 218.2,166.4 C217.4,166.9 217.3,180.3 218,182 C218.2,182.3 218.2,188.9 218,196.6 C217.9,205.7 218.2,211.5 218.9,212.9 C219.6,214.2 220.2,222.7 220.4,235.2 C220.7,248.4 221.2,256.4 222,258.2 C223,260.2 223,262.9 222.2,269.7 C221.6,274.5 220.9,280.3 220.7,282.5 C220.1,287.8 222.1,291.6 224.3,289.4 L224.3,289.4 Z M29.1,287.6 C33.4,287.2 33.7,286.5 33.2,278.8 C32.7,270.4 32.6,263.8 32.9,226.5 C33,211.7 33.5,197.7 34,195.5 C34.6,192.9 36.2,190.3 38.5,188.2 C41.8,185.2 42.5,184.9 46.3,185.5 C55.8,187.1 61.2,193.5 63.2,205.8 C63.7,209.5 64.5,228.3 64.9,247.7 C65.3,274.5 65.8,283.2 66.8,284.2 C67.7,285.1 71.7,285.5 80.7,285.5 L93.4,285.5 L94.3,281.5 C94.7,279.3 94.8,270.8 94.4,262.5 C94.1,254.3 93.7,236.7 93.5,223.5 C93.3,204.7 92.9,198.3 91.6,194 C90.7,191 89.3,185.4 88.4,181.6 C85.8,169.9 82.8,166.1 71.8,161 C60.1,155.5 46.5,154.9 33.6,159.2 C19.6,163.8 12.8,169.2 8.1,179.1 C2.9,190.5 2.2,197.2 1.7,243.3 C1.3,285.1 1.3,285.2 3.4,286 C10,288.5 16.1,288.9 29.1,287.6 L29.1,287.6 Z M142.9,285.9 C145.4,281.8 155.3,263.5 158.3,257.5 C159.9,254.2 163.4,247.6 166.2,242.8 C174.4,228.6 176.4,229.7 177.4,249.2 C178,261.9 178.8,267.8 181.3,280 L182.5,285.5 L190.5,286.2 C194.9,286.6 199.7,287.1 201.1,287.4 C206.2,288.4 206.8,286.8 207.1,271.5 C207.3,258.6 205.9,239.1 204.1,229.5 C203.7,227.3 203.7,224 204.1,222.1 C204.5,220.2 204.4,216.4 203.8,213.6 C202.4,206 201.2,194.2 200.2,177.7 C199.7,169.6 198.8,162.4 198.3,161.9 C197.8,161.4 191.6,160.6 184.6,160.2 C173.9,159.6 171.7,159.7 170.6,161 C168.9,162.9 159.8,183.6 154.9,196.5 C151.1,206.6 149.1,208.9 147.1,205.2 C145.9,202.9 143.7,183.4 143.5,172 C143.2,158.8 143.5,159.2 133.2,159.3 C128.4,159.3 122.5,159.2 120.1,159 C114.9,158.7 113,160.5 113.5,165.3 C115.8,186 118.3,237.4 118.6,267.8 C118.7,277.3 119.1,285.4 119.5,285.8 C120.1,286.4 124.3,286.8 139,287.8 C140.6,287.9 142,287.2 142.9,285.9 L142.9,285.9 Z M253.4,255.3 C253,254.3 252.4,250 252.2,245.8 C251.9,238.4 251.9,238.1 254.6,236.3 C258.4,233.8 269.4,233.3 274.4,235.4 C277.7,236.8 278.9,236.8 281.9,235.8 C283.9,235.1 285.8,234.2 286.1,233.7 C286.9,232.7 286,227.1 284.9,226.4 C283.7,225.7 283.8,221.6 285,220.4 C285.5,219.9 286,216.5 286.1,213 C286.2,207.5 286,206.4 284,204.8 C281.3,202.6 273.2,202.4 270.4,204.5 C269.4,205.3 267.6,205.9 266.5,205.9 C265.4,205.9 263.6,205.3 262.6,204.5 C261.4,203.6 258.4,203 255.4,203 C249.7,203 249.5,202.8 249.1,196 C248.9,193.5 248.3,190.9 247.7,190.2 C247.1,189.4 246.5,183 246.4,174.3 C246.2,166.3 245.9,159.6 245.6,159.3 C245.4,159 244.3,159.1 243.3,159.4 C241.7,159.9 241.5,161.2 241.5,171 C241.5,178.5 241.9,182 242.6,182 C244.1,182 245,185.4 245,191.3 C245,193.9 245.4,196.8 245.9,197.8 C246.4,198.7 247.6,201.2 248.5,203.4 L250.2,207.2 L256.5,206.5 C261.7,206 262.8,206.1 263.4,207.5 C263.9,208.8 265,209 270.2,208.4 C273.7,208 277,207.3 277.7,206.8 C278.4,206.2 279.7,206.3 281,207 C282.8,207.9 283.1,208.8 282.6,211.3 C281.1,220.1 280.8,224.8 281.9,225.4 C282.5,225.8 283,227.4 283,229.1 L283,232 L269.6,232 C257.3,232 256,232.2 253.4,234.2 C248.1,238.3 248,238.5 248.4,245.2 C248.9,252.8 250.4,257 252.6,257 C253.8,257 254,256.5 253.4,255.3 L253.4,255.3 Z M149.5,136.5 C151.7,132.7 154.5,127.4 155.5,124.8 C156.6,122.1 157.8,120 158.3,120 C158.7,120 160.5,117 162.4,113.3 C166.6,104.8 168.8,100.8 172.8,94.6 C174.6,91.8 176,89.1 176,88.4 C176,87.7 177.5,86 179.3,84.6 C182.5,82 182.5,82 180,82 C177.6,82 172,87.5 172,89.9 C172,90.5 171.6,91 171.2,91 C170.7,91 169.3,93.4 168.1,96.3 C166.8,99.1 164.5,103.3 162.9,105.4 C161.3,107.6 160,110 160,110.7 C160,111.4 159.3,112 158.5,112 C157.5,112 157,113 157,114.9 C157,116.5 156.3,118.3 155.5,119 C154.7,119.7 154,120.7 154,121.2 C154,121.8 152.7,124.2 151,126.7 C149.4,129.1 148,131.5 148,131.9 C148,132.4 147.3,133 146.5,133.4 C145.7,133.7 145,135.1 145,136.5 C145,138.2 144.4,139 143.3,139.1 C138.8,139.4 120.6,138.9 120.1,138.4 C119,137.3 120.2,120.9 121.6,118.1 C123.5,114.4 123.1,81 121.2,78.7 C119.8,77 119.8,47.3 121.2,46.4 C122.5,45.6 122.2,37.6 120.8,36.2 C119.8,35.2 119.8,34.5 120.7,33.1 C121.4,32.1 121.6,30.3 121.3,29.2 C121.1,28.1 121.3,27 121.8,26.6 C123,25.9 122.3,14.3 120.8,11.3 C120.2,10 120,8.7 120.4,8.3 C121.3,7.3 142.3,6.6 145.3,7.4 C147.4,7.9 147.5,8.5 147.7,20.2 C148,47.2 148.3,53.8 149.1,55.1 C149.5,55.8 150.2,56.1 150.6,55.7 C151.5,54.8 151.3,14.7 150.4,7.8 L149.8,3 L134.4,3 C125.9,3 118.7,3.1 118.3,3.3 C117.9,3.4 117.7,12.1 117.9,22.5 C118,33 118.2,42.4 118.1,43.5 C117.7,69.4 117.9,142 118.4,142.9 C118.9,143.7 123,144 132.2,143.8 L145.3,143.5 L149.5,136.5 L149.5,136.5 Z M34,116.3 C34.1,102.1 34,79.9 34,67 C33.9,47.6 34.2,43.1 35.4,41.5 C36.3,40.4 37,38.6 37,37.4 C37,36.3 38.3,34.1 40,32.5 C42.3,30.3 44.1,29.6 48.3,29.2 C52.9,28.8 54,29.1 56.6,31.3 C58.3,32.7 60.8,35.9 62.1,38.4 C64.9,43.8 66,44.2 66,40 C66,37.7 64.9,35.8 61.6,32.5 C59.2,30 56.5,28 55.6,28 C54.7,28 53.7,27.3 53.4,26.5 C52.5,24.4 48.4,24.6 42.7,27.2 C38.3,29.2 37.4,30.2 34.7,36 C31.8,42 31.5,43.3 31.4,54.3 C31.3,60.7 30.8,66.6 30.2,67.3 C29.1,68.7 29.1,85.9 30.3,87.8 C31.8,90.1 31.8,105.8 30.4,108.6 C29.4,110.5 29.1,114.6 29.4,124.1 C29.6,133.1 29.4,137 28.6,137.1 C22.5,137.4 6.3,136.7 5.7,136.1 C5.3,135.7 4.9,134.4 4.9,133.4 L4.9,87.8 C4.9,51.2 5.2,43.6 6.4,41.2 C7.2,39.7 8.2,35.5 8.6,32 C9,28.4 9.9,24.9 10.7,24.2 C11.4,23.5 12,22.1 12,21.2 C12.1,17.6 18.7,10.6 24,8.5 C24.8,8.1 27.1,7.1 29,6.3 C31.6,5.1 36.4,4.6 47,4.5 C59.3,4.2 62.5,4.5 68.3,6.3 C72,7.4 75,8.7 75,9.2 C75,9.6 75.6,10 76.3,10 C78,10 81.9,14.4 84.4,19 C85.5,20.9 86.7,22.7 87.1,23 C87.5,23.3 88.2,25.1 88.5,27 C88.8,28.9 89.5,30.7 90,31 C90.5,31.3 91.2,35 91.6,39.3 C92,43.5 92.6,47 93,47 C93.4,47 94,52.7 94.4,59.7 C94.8,66.7 95.6,72.7 96.1,73.1 C96.7,73.4 97.1,82.7 97.1,96.9 C97.1,115.9 97.4,120.2 98.5,120.6 C99.6,121.1 99.9,123.2 99.8,129.7 C99.8,137.1 99.6,138 98.1,137.4 C97.2,136.9 93.7,136.7 90.2,136.9 C86.6,137 83.3,136.6 82.5,136 C81.5,135.2 80.6,135.2 79.1,135.9 C73.2,139.1 71.9,134.1 77.6,129.7 C80,127.7 81,126.2 80.8,124.7 C80.3,121.4 77.7,121.7 75.5,125.2 C74.4,126.9 72.9,128.5 72.3,128.8 C70.4,129.4 70.6,122.5 72.5,121 C74.2,119.6 74.5,114.4 73,113.5 C72.4,113.1 72,107 72,98.5 C72,85.3 71.8,84 70.1,83 C67.1,81.5 66.8,81.7 67.5,84.9 C68.1,88 68.8,100.7 69.4,124.3 C69.6,131.8 70.1,138.7 70.4,139.5 C70.9,140.8 73.4,141 87.2,140.8 L103.5,140.5 L103.8,132.8 C104,127.6 103.6,124.1 102.7,122.3 C101.7,120.2 101.3,115.2 101.3,103.4 C101.3,94.6 100.8,86.5 100.3,85.4 C99.7,84.4 99.2,78.2 99.1,71.7 C99.1,65.3 98.6,59.2 98.1,58.2 C97.6,57.3 96.7,52.5 96.2,47.5 C93.4,20.8 83.4,5.8 66,2.3 C64.6,2.1 62.6,1.4 61.4,0.9 C59.1,-0.3 41,0.3 33.5,1.8 C30.8,2.3 26.4,3.7 23.8,4.9 C18,7.6 9.3,17.1 8.4,21.7 C8.1,23.5 7.4,25.3 6.9,25.6 C6.4,25.9 6,27 6,28 C6,29.1 5.3,32 4.4,34.6 C3.5,37.2 2.8,41.8 2.8,44.9 C2.8,48 2.4,51 1.9,51.6 C1.4,52.2 0.9,71.4 0.8,94.3 C0.7,131.6 0.9,136.1 2.3,138.4 C4,140.9 4.3,140.9 17.3,141.3 C24.5,141.4 31.3,141.7 32.3,141.8 C33.9,142 34,140.2 34,116.3 L34,116.3 Z M216.2,94.6 C216,64.8 215.5,47.2 214.9,46.4 C214.3,45.6 214,37 214.1,23.8 L214.2,2.5 L203.5,2.4 C196.8,2.3 191.9,1.8 190.4,0.9 C188.1,-0.3 187.7,-0.1 185.1,2.6 C183.5,4.2 179.2,11.2 175.6,18.3 C172,25.3 167.5,33.4 165.6,36.3 C163.7,39.1 161.2,44.4 159.9,47.9 C158.2,52.4 156.7,54.8 154.8,55.9 C152.3,57.3 150.9,61 152.8,61 C154.4,61 158,57.8 158,56.4 C158,55.6 158.5,55 159,55 C159.6,55 160.6,53.8 161.3,52.3 C161.9,50.7 163,48.9 163.7,48.2 C164.4,47.5 165,46.1 165,45.2 C165,44.2 165.7,42.4 166.6,41.1 C168.6,38.3 174,27.8 174,26.7 C174,26.3 174.5,25.4 175,24.7 C179.1,19.9 180,18.5 180,17.3 C180,16.6 180.9,15.1 181.9,14.1 C183,13 184.2,10.5 184.5,8.6 C184.9,6.7 185.7,5 186.3,4.7 C187,4.5 192.9,4.6 199.4,4.9 L211.3,5.5 L211.8,64 C212,96.2 212.6,123.3 213.1,124.2 C213.6,125.1 214,128.8 214,132.4 L214,138.9 L207.4,138.9 C203.8,138.8 199.3,138.2 197.5,137.4 C195.1,136.4 193.4,136.3 191.6,137 C189.9,137.6 188.9,137.6 188.4,136.8 C188,136.2 187.6,126.2 187.5,114.6 C187.3,103 186.9,91.8 186.5,89.8 C185.9,86.6 186.1,86 187.5,86 C189.7,86 189.1,82.6 186.7,82.2 C185.6,82 185,82.5 185,83.9 C185,85 184.6,86.2 184,86.5 C183,87.1 182.5,140.2 183.4,141.1 C183.7,141.3 191.2,141.5 200.2,141.5 L216.5,141.5 L216.2,94.6 L216.2,94.6 Z M308,107.5 C312.3,105.3 314,102.2 314,96.7 C314,87.6 309.8,83.9 301.4,85.5 C298.2,86 295.7,89.1 296.1,91.8 C296.4,93.8 295.9,95.1 294.9,94.8 C294,94.5 290.1,85 290,82.8 C290,82.3 291.7,82 293.8,82 C299.2,82 300.7,80.8 299.4,77.3 C298.6,75 297.7,74.4 294.2,73.9 C291.9,73.6 289.7,73.1 289.4,72.7 C289,72.3 287.9,67.2 286.9,61.3 C284.8,48.5 283.2,41.1 282.1,39 C281.6,38.1 280.9,35.9 280.5,34 C279.2,28.1 272.7,17 267.9,12.5 C261.3,6.3 252.8,4.4 245.6,7.4 C238.9,10.2 237.3,15.8 241.6,20.9 C243.7,23.4 244.9,24 248.1,24 C251.7,24 252.2,23.7 253.6,20.5 C256.8,12.7 259.7,20.4 263.9,48 C265,54.9 266.4,62.5 267,65 C268.9,72.3 268.8,73.3 266,74 C260.7,75.3 263.8,82 269.7,82 C271.1,82 272.1,82.8 272.6,84.3 C273.8,88.3 282.1,100 285.7,102.8 C293.6,108.8 302.1,110.6 308,107.5 L308,107.5 Z M421,97 C421,96 420.3,92.5 419.5,89.3 C418.7,86.2 418.3,83.3 418.8,82.9 C419.2,82.5 421.1,82 423,81.8 C425.9,81.6 426.5,81.1 426.8,78.9 C427.2,75.6 425.5,74.2 420.5,73.8 L416.6,73.5 L414.9,65 C413.9,60.3 412.8,53.7 412.5,50.2 C412.1,46.8 411.4,43.7 410.9,43.4 C409.7,42.7 409.8,38.3 411,37.5 C412.3,36.7 414.7,40.8 415.9,45.9 C417.1,51.6 419.6,53.4 422,50.5 C424.3,47.7 421.5,36.6 417.1,31.6 C412.6,26.5 402,24.4 396.1,27.4 C388.8,31.2 388,38.2 392.4,59.3 C394.9,71.1 395,72.3 393.6,73.9 C392.7,74.9 392,76.8 392,78.3 C392,80.6 392.6,81.1 396.3,82 C403.4,83.8 405.6,85 407.9,88 C409,89.6 410,91.2 410,91.6 C410,92 410.9,93.8 412.1,95.6 C413.8,98.4 414.8,99 417.6,99 C420.3,99 421,98.6 421,97 L421,97 Z M333.1,82.5 C342.4,78.5 345.2,71.2 341.1,61.8 C338.2,55 331.2,51 322.2,51 C316.8,51 314,48.9 314,44.9 C314,42.9 314.8,41.5 316.6,40.4 C320.4,37.9 324,39.5 326.4,44.8 C328.3,49 328.4,49 333.5,49 C337.8,49 339,48.6 340.2,46.8 C341.6,44.7 341.7,44.7 344.8,46.5 C347.7,48.3 348.2,48.3 351.3,46.8 C355.1,45 356.7,41.2 355,38 C353.4,35 354.6,34 359.3,34 C364.3,34.1 368,36.7 368,40.3 C368,42.2 367,43.2 363.3,45 C360.6,46.3 357.2,48 355.5,48.8 C348.1,52.5 343.5,60.4 345.8,65.5 C346.5,66.9 347,69 347,70.2 C347,73.2 355.2,80.5 360.7,82.4 C369.6,85.4 381.2,84 386.3,79.2 C388.4,77.2 389,75.7 389,72.3 C389,66.5 386.5,64 380.6,64 C376.7,64 376.1,64.3 375,67 C374,69.4 374,70.7 374.9,72.6 C375.9,74.8 375.7,75.2 373.4,76.2 C371.3,77.2 370.3,77.1 367.5,75.6 C361.7,72.4 361.9,69.1 368.1,66 C370.2,64.9 372.7,64 373.7,64 C374.7,64 377.8,62 380.5,59.6 L385.5,55.2 L385.4,47.4 C385.4,41.2 384.9,38.8 383.3,36.1 C376.9,25.8 354.5,22.6 343.8,30.3 C341.8,31.8 340.9,33.5 340.4,36.9 L339.7,41.4 L338.1,39 C332,29.6 325.4,26 314.5,26 C301.4,26 294,33.2 294,45.9 C294,57.7 298.7,70.5 305.4,76.9 C311.9,83.2 325.4,85.9 333.1,82.5 L333.1,82.5 Z" id="Shape"></path>
        </g>
    </g>
</svg>