<?xml version="1.0" encoding="UTF-8" standalone="no"?>
<svg width="166px" height="111px" viewBox="0 0 166 111" version="1.1" xmlns="http://www.w3.org/2000/svg" xmlns:xlink="http://www.w3.org/1999/xlink">
    <g id="sxsw" fill-rule="evenodd">
        <g>
            <polyline id="Fill-48" points="0.833 42.632 0.833 36.332 20.393 36.332 20.393 38.632 21.802 40.038 54.775 40.038 55.887 38.927 55.887 32.333 55.146 31.593 9.428 31.593 1.131 23.293 1.131 9.583 10.538 0.176 66.484 0.176 75.152 8.844 75.152 15.142 55.591 15.142 55.591 12.695 54.182 11.288 21.802 11.288 20.69 12.399 20.69 18.771 21.431 19.51 67.151 19.51 75.449 27.814 75.449 41.89 66.037 51.3 9.501 51.3 0.833 42.632"></polyline>
            <polyline id="Fill-49" points="124.402 40.187 134.251 40.187 121.364 31.742 108.439 40.187 117.878 40.187 117.878 51.301 78.926 51.301 78.926 40.187 85.371 40.187 109.01 25.959 87.155 11.287 79.665 11.287 79.665 0.176 117.853 0.176 117.853 11.287 108.48 11.287 121.34 19.066 134.228 11.287 124.818 11.287 124.818 0.176 163.026 0.176 163.026 11.287 155.429 11.287 131.684 25.373 157.32 40.187 163.768 40.187 163.768 51.301 124.402 51.301 124.402 40.187"></polyline>
            <polyline id="Fill-50" points="1 101.456 1 95.156 20.563 95.156 20.563 97.456 21.968 98.862 54.943 98.862 56.053 97.751 56.053 91.157 55.313 90.417 9.594 90.417 1.295 82.117 1.295 68.407 10.706 59 66.65 59 75.319 67.668 75.319 73.966 55.758 73.966 55.758 71.519 54.348 70.112 21.968 70.112 20.857 71.223 20.857 77.595 21.597 78.334 67.315 78.334 75.614 86.638 75.614 100.714 66.207 110.124 9.671 110.124 1 101.456"></polyline>
            <polyline id="Fill-51" points="82.434937 70.1117827 78 70.1117827 78 59 104.491481 59 104.491481 70.1117827 97.0618348 70.1117827 103.224578 96.935258 113.536234 59 132.538999 59 142.790807 96.935258 148.952774 70.1117827 141.523905 70.1117827 141.523905 59 166 59 166 70.1117827 161.56584 70.1117827 152.064847 110.124 131.733777 110.124 122.230452 72.3357391 112.730236 110.124 91.9374851 110.124 82.434937 70.1117827"></polyline>
        </g>
    </g>
</svg>