<svg version="1.1" id="Layer_1" xmlns="http://www.w3.org/2000/svg" xmlns:xlink="http://www.w3.org/1999/xlink" x="0px" y="0px"
	 width="1200px" height="930px" viewBox="0 0 1200 930" enable-background="new 0 0 1200 930" xml:space="preserve">
<path d="M342.055,303.552c-44.334,0-106.171-33.292-106.171-87.511V34.585c0-5.686,4.609-10.295,10.295-10.295
	s10.296,4.609,10.296,10.295v181.456c0,40.229,51.509,66.92,85.58,66.92c34.07,0,85.58-26.691,85.58-66.92V34.585
	c0-5.686,4.609-10.295,10.295-10.295s10.296,4.609,10.296,10.295v181.456C448.226,270.26,386.388,303.552,342.055,303.552z"/>
<path d="M342.055,265.801c-41.054,0-68.635-27.581-68.635-68.634V34.585c0-5.686,4.61-10.295,10.296-10.295
	s10.295,4.609,10.295,10.295v162.582c0,30.084,17.959,48.043,48.044,48.043c30.084,0,48.043-17.959,48.043-48.043V34.585
	c0-5.686,4.61-10.295,10.296-10.295s10.295,4.609,10.295,10.295v162.582C410.688,238.22,383.107,265.801,342.055,265.801z"/>
<path d="M887.707,294.543c-5.686,0-10.295-4.609-10.295-10.295V34.585c0-5.686,4.609-10.295,10.295-10.295
	s10.296,4.609,10.296,10.295v249.663C898.003,289.934,893.393,294.543,887.707,294.543z"/>
<path d="M928.941,294.543c-5.686,0-10.295-4.609-10.295-10.295V34.585c0-5.686,4.609-10.295,10.295-10.295
	s10.296,4.609,10.296,10.295v249.663C939.237,289.934,934.627,294.543,928.941,294.543z"/>
<path d="M476.565,599.646c-5.686,0-10.296-4.61-10.296-10.295V343.446c0-5.686,4.61-10.295,10.296-10.295s10.295,4.61,10.295,10.295
	v245.905C486.86,595.037,482.251,599.646,476.565,599.646z"/>
<path d="M517.8,599.646c-5.686,0-10.296-4.61-10.296-10.295V343.446c0-5.686,4.61-10.295,10.296-10.295s10.295,4.61,10.295,10.295
	v245.905C528.095,595.037,523.485,599.646,517.8,599.646z"/>
<path d="M209.009,294.546c-4.815,0-9.119-3.396-10.089-8.3c-0.359-1.82-36.084-182.338-41.48-208.044
	c-4.313-20.553-19.837-33.321-40.516-33.321S80.722,57.649,76.408,78.202c-5.396,25.706-41.121,206.224-41.48,208.044
	c-1.104,5.578-6.521,9.205-12.098,8.101s-9.204-6.52-8.101-12.098c0.359-1.822,36.106-182.456,41.525-208.277
	c6.334-30.18,30.149-49.682,60.669-49.682c30.519,0,54.335,19.502,60.669,49.682c5.419,25.821,41.166,206.455,41.525,208.277
	c1.104,5.578-2.523,10.994-8.101,12.098C210.344,294.48,209.67,294.546,209.009,294.546z"/>
<path d="M171.366,294.546c-4.723,0-8.98-3.272-10.041-8.076l-11.729-53.055H84.25L72.522,286.47
	c-1.227,5.553-6.722,9.062-12.273,7.83c-5.553-1.227-9.059-6.724-7.83-12.273l13.513-61.128c1.041-4.718,5.224-8.074,10.052-8.074
	h81.881c4.828,0,9.011,3.355,10.051,8.074l13.513,61.128c1.229,5.55-2.277,11.047-7.829,12.273
	C172.85,294.465,172.103,294.546,171.366,294.546z"/>
<path d="M147.94,188.156c-0.013,0-0.03,0.002-0.05,0H85.957c-2.991,0-5.834-1.3-7.789-3.562c-1.956-2.263-2.83-5.264-2.398-8.225
	l0.111-0.759C86.505,102.988,95.77,66.115,116.924,66.115c21.129,0,30.396,36.78,41.003,109.228c0.203,0.807,0.31,1.651,0.31,2.519
	C158.236,183.546,153.629,188.156,147.94,188.156z M97.909,167.565h38.029c-6.827-44.301-15.242-79.216-19.015-79.216
	C113.15,88.35,104.735,123.265,97.909,167.565z"/>
<path d="M1175.174,294.543c-5.686,0-10.296-4.609-10.296-10.295V100.862c0-39.349-44.381-63.703-85.5-63.703
	c-41.118,0-85.5,24.354-85.5,63.703v183.386c0,5.686-4.609,10.295-10.295,10.295s-10.295-4.609-10.295-10.295V100.862
	c0-52.764,53.939-84.293,106.09-84.293s106.091,31.529,106.091,84.293v183.386C1185.469,289.934,1180.859,294.543,1175.174,294.543z
	"/>
<path d="M1137.049,294.543c-5.687,0-10.296-4.609-10.296-10.295V115.234c0-31.032-25.52-42.041-47.375-42.041
	c-21.854,0-47.374,11.009-47.374,42.041v169.014c0,5.686-4.61,10.295-10.296,10.295s-10.295-4.609-10.295-10.295V115.234
	c0-43.034,35.231-62.632,67.965-62.632s67.966,19.598,67.966,62.632v169.014C1147.344,289.934,1142.734,294.543,1137.049,294.543z"
	/>
<path d="M465.921,254.541c-5.686,0-10.296-4.61-10.296-10.295s4.61-10.295,10.296-10.295c30.79,0,52.12-48.848,67.696-84.514
	c2.279-5.221,4.467-10.228,6.583-14.875c1.34-2.941,2.709-6.018,4.125-9.2C562.238,85.112,589.312,24.29,652.845,24.29
	c5.686,0,10.295,4.609,10.295,10.295s-4.609,10.296-10.295,10.296c-50.158,0-72.089,49.267-89.709,88.853
	c-1.44,3.237-2.835,6.369-4.195,9.358c-2.076,4.557-4.22,9.468-6.454,14.586C534.635,198.555,510.187,254.541,465.921,254.541z"/>
<path d="M851.352,44.881H688.557c-5.686,0-10.296-4.61-10.296-10.296s4.61-10.295,10.296-10.295h162.795
	c5.686,0,10.296,4.609,10.296,10.295S857.037,44.881,851.352,44.881z"/>
<path d="M748.72,59.037h-60.163c-5.686,0-10.296,4.61-10.296,10.295s4.61,10.295,10.296,10.295h49.868v204.621
	c0,5.686,4.609,10.295,10.295,10.295s10.296-4.609,10.296-10.295V69.332C759.016,63.646,754.405,59.037,748.72,59.037z"/>
<path d="M851.352,59.037h-60.163c-5.686,0-10.296,4.61-10.296,10.295v214.916c0,5.686,4.61,10.295,10.296,10.295
	s10.295-4.609,10.295-10.295V79.627h49.868c5.686,0,10.296-4.61,10.296-10.295S857.037,59.037,851.352,59.037z"/>
<path d="M465.921,294.543c-5.686,0-10.296-4.609-10.296-10.295s4.61-10.295,10.296-10.295c35.436,0,79.673-43.966,100.714-100.093
	c21.521-57.409,45.904-113.455,86.21-113.455c5.686,0,10.295,4.609,10.295,10.295s-4.609,10.295-10.295,10.295
	c-25.843,0-47.441,48.106-66.932,100.093C565.298,236.086,516.236,294.543,465.921,294.543z"/>
<path d="M716.868,353.742H554.074c-5.686,0-10.295-4.61-10.295-10.295s4.609-10.295,10.295-10.295h162.794
	c5.687,0,10.296,4.61,10.296,10.295S722.555,353.742,716.868,353.742z"/>
<path d="M614.238,367.897h-60.164c-5.686,0-10.295,4.61-10.295,10.296s4.609,10.295,10.295,10.295h49.868v200.868
	c0,5.686,4.61,10.295,10.296,10.295s10.295-4.609,10.295-10.295V378.193C624.533,372.508,619.924,367.897,614.238,367.897z"/>
<path d="M716.868,367.897h-60.163c-5.686,0-10.295,4.61-10.295,10.296v211.163c0,5.686,4.609,10.295,10.295,10.295
	S667,595.042,667,589.356V388.488h49.868c5.687,0,10.296-4.609,10.296-10.295S722.555,367.897,716.868,367.897z"/>
<path d="M428.278,599.649h-63.919c-20.885,0-53.302-7.993-81.645-30.421c-22.099-17.484-48.44-49.519-48.44-102.828
	s26.342-85.344,48.44-102.831c28.343-22.428,60.76-30.418,81.645-30.418h63.919c5.686,0,10.295,4.61,10.295,10.295
	s-4.609,10.295-10.295,10.295h-63.919c-16.627,0-44.638,6.801-68.868,25.975c-18.534,14.667-40.626,41.609-40.626,86.684
	c0,84.291,75.192,112.659,109.494,112.659h63.919c5.686,0,10.295,4.609,10.295,10.295S433.964,599.649,428.278,599.649z"/>
<path d="M428.278,564.902h-63.919c-35.491,0-91.799-26.744-91.799-98.502c0-71.761,56.308-98.502,91.799-98.502h63.919
	c5.686,0,10.295,4.61,10.295,10.296s-4.609,10.295-10.295,10.295h-63.919c-28.624,0-71.208,20.749-71.208,77.912
	s42.584,77.912,71.208,77.912h63.919c5.686,0,10.295,4.61,10.295,10.295S433.964,564.902,428.278,564.902z"/>
<path d="M827.222,599.651c-5.686,0-10.295-4.609-10.295-10.295v-97.563c-42.891-12.329-72.173-45.756-72.173-83.569v-64.778
	c0-5.686,4.609-10.295,10.295-10.295s10.296,4.61,10.296,10.295v64.778c0,33.872,32.226,58.585,64.06,65.487
	c4.735,1.028,8.113,5.218,8.113,10.062v105.583C837.518,595.042,832.907,599.651,827.222,599.651z"/>
<path d="M870.978,599.651c-5.686,0-10.296-4.609-10.296-10.295V483.773c0-4.844,3.379-9.034,8.114-10.062
	c31.833-6.902,64.06-31.615,64.06-65.487v-64.778c0-5.686,4.609-10.295,10.295-10.295s10.296,4.61,10.296,10.295v64.778
	c0,37.813-29.283,71.241-72.174,83.569v97.563C881.272,595.042,876.663,599.651,870.978,599.651z"/>
<path d="M849.1,458.41c-48.003,0-69.491-30.271-69.491-60.269v-54.694c0-5.686,4.61-10.295,10.296-10.295s10.295,4.61,10.295,10.295
	v54.694c0,24.846,18.281,39.678,48.9,39.678c30.62,0,48.9-14.833,48.9-39.678v-54.694c0-5.686,4.61-10.295,10.296-10.295
	s10.295,4.61,10.295,10.295v54.694C918.591,428.139,897.103,458.41,849.1,458.41z"/>
<path d="M940.689,873.432c-5.686,0-10.295-4.61-10.295-10.295s4.609-10.295,10.295-10.295c30.791,0,52.121-48.848,67.697-84.515
	c2.279-5.221,4.466-10.228,6.583-14.877c1.339-2.938,2.709-6.018,4.124-9.2c17.914-40.249,44.987-101.071,108.521-101.071
	c5.686,0,10.295,4.61,10.295,10.295s-4.609,10.295-10.295,10.295c-50.16,0-72.09,49.267-89.71,88.853
	c-1.44,3.238-2.835,6.37-4.195,9.358c-2.076,4.56-4.22,9.469-6.454,14.588C1009.404,817.445,984.955,873.432,940.689,873.432z"/>
<path d="M940.689,913.432c-5.686,0-10.295-4.61-10.295-10.295s4.609-10.295,10.295-10.295c34.557,0,77.89-43.122,100.798-100.307
	c31.373-78.316,57.937-113.242,86.128-113.242c5.686,0,10.295,4.61,10.295,10.295s-4.609,10.295-10.295,10.295
	c-10.019,0-32.05,13.033-67.016,100.31C1038.752,854.731,991.908,913.432,940.689,913.432z"/>
<path d="M958.971,663.769H796.175c-5.686,0-10.295-4.61-10.295-10.295s4.609-10.295,10.295-10.295h162.796
	c5.686,0,10.295,4.61,10.295,10.295S964.656,663.769,958.971,663.769z"/>
<path d="M856.339,677.925h-60.164c-5.686,0-10.295,4.61-10.295,10.295c0,5.686,4.609,10.295,10.295,10.295h49.868v204.621
	c0,5.686,4.61,10.295,10.296,10.295s10.295-4.61,10.295-10.295V688.22C866.634,682.535,862.024,677.925,856.339,677.925z"/>
<path d="M958.971,677.925h-60.164c-5.686,0-10.295,4.61-10.295,10.295v214.916c0,5.686,4.609,10.295,10.295,10.295
	s10.296-4.61,10.296-10.295V698.516h49.868c5.686,0,10.295-4.609,10.295-10.295C969.266,682.535,964.656,677.925,958.971,677.925z"
	/>
<path d="M718.425,913.432c-5.686,0-10.296-4.61-10.296-10.295V653.474c0-5.686,4.61-10.295,10.296-10.295s10.295,4.61,10.295,10.295
	v249.663C728.72,908.822,724.11,913.432,718.425,913.432z"/>
<path d="M759.659,913.432c-5.686,0-10.296-4.61-10.296-10.295V653.474c0-5.686,4.61-10.295,10.296-10.295s10.295,4.61,10.295,10.295
	v249.663C769.954,908.822,765.345,913.432,759.659,913.432z"/>
<path d="M276.369,913.432c-5.687,0-10.296-4.61-10.296-10.295V653.474c0-5.686,4.609-10.295,10.296-10.295
	c5.686,0,10.295,4.61,10.295,10.295v249.663C286.664,908.822,282.055,913.432,276.369,913.432z"/>
<path d="M317.603,913.432c-5.686,0-10.295-4.61-10.295-10.295V653.474c0-5.686,4.609-10.295,10.295-10.295
	s10.296,4.61,10.296,10.295v249.663C327.898,908.822,323.288,913.432,317.603,913.432z"/>
<path d="M235.778,913.432h-48.477c-52.987,0-85.901-30.157-85.901-78.703V653.474c0-5.686,4.609-10.295,10.295-10.295
	s10.296,4.61,10.296,10.295v181.255c0,37.474,23.194,58.112,65.311,58.112h48.477c5.686,0,10.295,4.61,10.295,10.295
	S241.464,913.432,235.778,913.432z"/>
<path d="M235.778,873.336h-39.468c-51.396,0-56.946-28.574-56.946-40.86V653.474c0-5.686,4.61-10.295,10.296-10.295
	s10.295,4.61,10.295,10.295v179.002c0,5.015,0,20.269,36.355,20.269h39.468c5.686,0,10.295,4.61,10.295,10.295
	S241.464,873.336,235.778,873.336z"/>
<path d="M664.133,913.432c-5.686,0-10.296-4.61-10.296-10.295V725.662c0-55.111-45.046-69.815-71.664-69.815
	c-31.813,0-56.182,23.291-56.423,23.527c-3.997,3.875-10.349,3.875-14.34,0c-0.227-0.219-24.869-23.527-56.429-23.527
	c-26.618,0-71.665,14.704-71.665,69.815v177.475c0,5.686-4.61,10.295-10.296,10.295s-10.295-4.61-10.295-10.295V725.662
	c0-62.117,47.822-90.406,92.256-90.406c28.951,0,52.367,14.691,63.598,23.297c11.23-8.606,34.644-23.297,63.594-23.297
	c44.435,0,92.255,28.289,92.255,90.406v177.475C674.428,908.822,669.818,913.432,664.133,913.432z"/>
<path d="M498.148,913.432c-5.686,0-10.295-4.61-10.295-10.295V735.952c0-26.188-16.913-39.89-33.621-39.89
	c-16.707,0-33.62,13.701-33.62,39.89v167.184c0,5.686-4.61,10.295-10.296,10.295s-10.295-4.61-10.295-10.295V735.952
	c0-39.284,27.93-60.48,54.211-60.48s54.212,21.197,54.212,60.48v167.184C508.444,908.822,503.834,913.432,498.148,913.432z"/>
<path d="M626.841,913.432c-5.686,0-10.296-4.61-10.296-10.295V735.952c0-26.188-16.913-39.89-33.62-39.89
	s-33.621,13.701-33.621,39.89v167.184c0,5.686-4.609,10.295-10.295,10.295s-10.296-4.61-10.296-10.295V735.952
	c0-39.284,27.931-60.48,54.212-60.48s54.211,21.197,54.211,60.48v167.184C637.136,908.822,632.526,913.432,626.841,913.432z"/>
<path d="M1128.9,851.108c14.268,0,25.875,11.607,25.875,25.875s-11.607,25.875-25.875,25.875s-25.875-11.607-25.875-25.875
	S1114.633,851.108,1128.9,851.108 M1128.9,845.108c-17.604,0-31.875,14.271-31.875,31.875s14.271,31.875,31.875,31.875
	s31.875-14.271,31.875-31.875S1146.505,845.108,1128.9,845.108L1128.9,845.108z"/>
<path d="M1122.131,895.83h-5.58v-37.801h11.22c5,0,15.755-0.108,15.755,10.854c0,4.59-2.035,8.478-9.593,10.044l11.221,16.902
	h-6.337l-10.813-16.146h-5.872V895.83z M1122.131,875.201h5.407c5.232,0,9.999-1.134,9.999-6.534c0-5.076-3.837-6.156-9.883-6.156
	h-5.523V875.201z"/>
</svg>
