<?xml version="1.0" encoding="UTF-8" standalone="no"?>
<svg width="300px" height="69px" viewBox="0 0 300 69" version="1.1" xmlns="http://www.w3.org/2000/svg" xmlns:xlink="http://www.w3.org/1999/xlink">
    <title>hippohonk</title>
    <defs></defs>
    <g id="hippohonk" fill-rule="evenodd">
        <g>
            <path d="M91.5787267,16.9047163 L94.4351318,16.9047163 L94.4351318,42.646983 L91.2850936,42.646983 L91.2850936,46.2222978 L101.581915,46.2222978 L101.581915,42.646983 L98.7216629,42.646983 L98.7216629,29.8750096 C99.4602336,29.2390182 100.239409,28.7030415 101.077567,28.2781924 C101.915725,27.8529159 102.741915,27.6306608 103.556138,27.6306608 C104.986264,27.6306608 106.090701,28.0674775 106.861328,28.925724 C107.620414,29.7882447 108.009361,31.0512519 108.009361,32.715173 L108.009361,42.646983 L105.153383,42.646983 L105.153383,46.2222978 L115.156143,46.2222978 L115.156143,42.646983 L112.299738,42.646983 L112.299738,32.1988574 C112.299738,30.8046342 112.121507,29.5852232 111.783423,28.5564387 C111.449613,27.5310734 110.9692,26.6809477 110.345176,26.021876 C109.717733,25.3623768 108.970614,24.8695689 108.077319,24.5481539 C107.183597,24.2220373 106.190288,24.0549185 105.097819,24.0549185 C104.473795,24.0549185 103.870287,24.1348449 103.29798,24.2656335 C102.729948,24.4006962 102.182003,24.6037176 101.649446,24.8499079 C101.113469,25.104219 100.608694,25.405973 100.127854,25.7440571 C99.6393199,26.0889799 99.2140434,26.4586927 98.844758,26.8356715 L98.7216629,26.8356715 L98.7216629,13.3294015 L91.5787267,13.3294015 L91.5787267,16.9047163 L91.5787267,16.9047163 Z" id="Shape"></path>
            <path d="M115.871206,28.3452963 L118.728039,28.3452963 L118.728039,42.6465556 L115.902835,42.6465556 L115.902835,46.2218704 L125.873967,46.2218704 L125.873967,42.6465556 L123.017989,42.6465556 L123.017989,24.7699815 L115.871206,24.7699815 L115.871206,28.3452963 L115.871206,28.3452963 Z M118.282674,17.9770971 C118.46176,18.3344148 118.707951,18.6361688 119.009705,18.9024475 C119.311459,19.1725729 119.609366,19.3832878 119.923087,19.5422857 C120.225696,19.6974368 120.550958,19.7649682 120.896736,19.7649682 C121.230118,19.7649682 121.551961,19.6974368 121.865682,19.5422857 C122.167436,19.3832878 122.469618,19.1725729 122.759832,18.9024475 C123.050045,18.6361688 123.284268,18.3344148 123.463354,17.9770971 C123.642013,17.6317469 123.729206,17.2616067 123.729206,16.8606927 C123.729206,16.4790124 123.642013,16.1216946 123.463354,15.7763444 C123.284268,15.4425344 123.050045,15.140353 122.759832,14.8821951 C122.469618,14.6360049 122.167436,14.4329834 121.865682,14.2786871 C121.551961,14.123536 121.230118,14.0440371 120.896736,14.0440371 C120.550958,14.0440371 120.225696,14.123536 119.923087,14.2786871 C119.609366,14.4329834 119.311459,14.6360049 119.009705,14.8821951 C118.707951,15.140353 118.46176,15.4425344 118.282674,15.7763444 C118.104015,16.1216946 118.016823,16.4790124 118.016823,16.8606927 C118.016823,17.2616067 118.104015,17.6317469 118.282674,17.9770971 L118.282674,17.9770971 Z" id="Shape"></path>
            <path d="M196.435679,29.1560999 C196.876343,29.1560999 197.32128,29.1642208 197.758524,29.1719142 C199.506646,29.2116637 200.662373,29.5411996 201.190656,30.1571026 C201.786898,30.8482304 201.675343,32.0125051 201.552248,33.3550112 L201.48087,34.2012902 C201.023537,40.561632 199.613927,41.2566066 198.250905,41.9237992 C197.210153,42.4362681 194.481117,42.7705055 191.306716,42.7705055 C190.500614,42.7705055 189.749648,42.7422962 189.2453,42.7025468 C187.94639,42.5832984 187.056515,41.8883239 186.348718,40.4304161 C185.546463,38.7818818 184.481776,34.4359402 184.481776,33.4503244 C184.481776,32.2270667 184.744208,31.4085696 186.102955,30.6020402 C187.274496,29.9027915 191.009236,29.1560999 196.435679,29.1560999 L196.435679,29.1560999 Z M162.497757,29.1560999 C167.9242,29.1560999 171.658513,29.9027915 172.830053,30.6020402 C174.193075,31.4085696 174.451233,32.2270667 174.451233,33.4545986 C174.451233,34.8009514 173.171984,39.2268193 172.583863,40.4346902 C171.876921,41.8883239 170.983199,42.5918467 169.684289,42.7025468 C169.179514,42.746143 168.428975,42.7705055 167.622446,42.7705055 C164.448045,42.7705055 161.722856,42.4405422 160.678257,41.9280733 C159.315662,41.2566066 157.905198,40.5650513 157.452567,34.2051369 C157.432478,33.9191972 157.405124,33.6332575 157.380761,33.3592853 C157.253819,32.0125051 157.142264,30.8482304 157.74278,30.1571026 C158.271064,29.5454737 159.422943,29.2116637 161.170638,29.1719142 C161.611301,29.1642208 162.056239,29.1560999 162.497757,29.1560999 L162.497757,29.1560999 Z M146.953151,28.3457237 L149.813403,28.3457237 L149.813403,52.6578645 L146.953151,52.6578645 L146.953151,56.2336067 L156.955912,56.2336067 L156.955912,52.6578645 L154.099507,52.6578645 L154.099507,49.0825497 L154.099507,45.6978613 L154.099507,41.5425463 L154.099507,36.2631334 L154.13541,36.4375181 C154.465373,38.0027068 154.838505,39.7747636 155.422352,41.447233 C156.185285,43.6163571 158.644196,46.1987901 166.057257,46.1987901 L166.708636,46.2103303 C167.034325,46.214177 167.399763,46.2222978 167.797258,46.2222978 C169.577008,46.2222978 172.123111,46.095356 173.660518,45.0024594 C175.591145,43.631744 177.124705,38.1181084 177.871397,34.9556752 C178.002613,34.4000375 178.368479,34.1418797 178.765546,34.0345988 L179.464367,33.9747609 L180.159769,34.0345988 C180.557264,34.1418797 180.926549,34.3957633 181.057765,34.9556752 C181.804457,38.1181084 183.341864,43.631744 185.268644,45.0024594 C186.809898,46.0996301 189.352581,46.2222978 191.132331,46.2222978 C191.529399,46.2222978 191.894837,46.214177 192.21668,46.2103303 L192.871905,46.1987901 C200.28112,46.1987901 202.743877,43.6163571 203.502536,41.447233 C204.090657,39.7747636 204.463789,38.0027068 204.789906,36.4375181 C205.222876,34.3837958 204.957024,32.2663888 205.675507,31.8214512 L205.206634,31.6748483 L205.310495,31.4047229 C205.763127,30.2524158 205.433591,27.4122524 205.366059,26.8557599 L205.278012,26.1885673 L204.635182,26.1133425 C201.405217,25.7239687 197.992747,25.4854719 195.942871,25.4854719 C195.863373,25.4854719 187.938269,25.5367615 185.610148,26.7010362 C185.288305,26.860034 184.970737,27.0344188 184.656588,27.1976908 C183.190987,27.988406 181.673241,28.8026289 179.468641,28.8141691 C177.251647,28.8026289 175.738175,27.988406 174.268727,27.1976908 C173.958425,27.0344188 173.636583,26.860034 173.31474,26.7010362 C170.99132,25.5367615 163.065789,25.4854719 162.986291,25.4854719 C161.186452,25.4854719 157.226037,25.6722516 154.099507,25.9778524 L154.099507,24.7699815 L146.953151,24.7699815 L146.953151,28.3457237 L146.953151,28.3457237 Z" id="Shape"></path>
            <path d="M124.444269,28.3452963 L127.30452,28.3452963 L127.30452,52.6578645 L124.480171,52.6578645 L124.480171,56.2331793 L134.447457,56.2331793 L134.447457,52.6578645 L131.591051,52.6578645 L131.591051,45.6978613 C132.393734,46.0671467 133.231892,46.3573605 134.113647,46.5915832 C134.983433,46.8142657 135.98871,46.9369334 137.12905,46.9369334 C138.714327,46.9369334 140.163686,46.647147 141.50662,46.0748401 C142.833312,45.4952673 143.985619,44.6925845 144.943025,43.6522598 C145.904278,42.6230479 146.662937,41.3835484 147.211309,39.933334 C147.747286,38.4797004 148.025959,36.8828831 148.025959,35.114673 C148.025959,33.4738322 147.779342,31.9761749 147.286534,30.6140078 C146.798428,29.2514132 146.114993,28.0871385 145.244779,27.1177645 C144.363025,26.1565113 143.313724,25.3978521 142.099015,24.8576013 C140.878749,24.3211972 139.54009,24.0549185 138.078335,24.0549185 C136.8944,24.0549185 135.74252,24.3011088 134.626115,24.7819491 C133.509711,25.2743296 132.472806,25.8662974 131.535488,26.5813604 L131.535488,24.7699815 L124.444269,24.7699815 L124.444269,28.3452963 L124.444269,28.3452963 Z M139.584113,28.1427023 C140.398336,28.480359 141.113399,28.9808604 141.728875,29.628392 C142.340931,30.2797703 142.833312,31.0709129 143.191057,32.0078035 C143.548375,32.9493957 143.739428,34.0345988 143.739428,35.2497357 C143.739428,36.5807017 143.548375,37.7526698 143.167549,38.7570918 C142.789715,39.762796 142.277674,40.6129217 141.637836,41.2959286 C141.001844,41.9874838 140.26712,42.4995253 139.44093,42.8495771 C138.602772,43.1949273 137.732558,43.362046 136.838836,43.362046 C135.5442,43.362046 134.459424,43.1829597 133.58921,42.8017067 C132.718996,42.4362681 132.059924,42.011419 131.591051,41.5425463 L131.591051,29.8865498 C132.282179,29.195422 133.09683,28.6355102 134.034148,28.2341688 C134.97574,27.8328274 135.944686,27.6302334 136.961931,27.6302334 C137.899249,27.6302334 138.76989,27.8088923 139.584113,28.1427023 L139.584113,28.1427023 Z" id="Shape"></path>
            <path d="M206.617099,16.9047163 L209.473504,16.9047163 L209.473504,42.646983 L206.326885,42.646983 L206.326885,46.2222978 L216.61986,46.2222978 L216.61986,42.646983 L213.763882,42.646983 L213.763882,29.8750096 C214.498606,29.2390182 215.2812,28.7030415 216.119358,28.2781924 C216.95367,27.8529159 217.77986,27.6306608 218.594083,27.6306608 C220.024636,27.6306608 221.129073,28.0674775 221.8997,28.925724 C222.658359,29.7882447 223.051579,31.0512519 223.051579,32.715173 L223.051579,42.646983 L220.191328,42.646983 L220.191328,46.2222978 L230.194516,46.2222978 L230.194516,42.646983 L227.338111,42.646983 L227.338111,32.1988574 C227.338111,30.8046342 227.159452,29.5852232 226.825642,28.5564387 C226.487985,27.5310734 226.011419,26.6809477 225.383548,26.021876 C224.759952,25.3623768 224.012833,24.8695689 223.119111,24.5481539 C222.225389,24.2220373 221.23208,24.0549185 220.136191,24.0549185 C219.512167,24.0549185 218.908232,24.1348449 218.340627,24.2656335 C217.772167,24.4006962 217.223795,24.6037176 216.687818,24.8499079 C216.151414,25.104219 215.650913,25.405973 215.1705,25.7440571 C214.677265,26.0889799 214.252416,26.4586927 213.882703,26.8356715 L213.763882,26.8356715 L213.763882,13.3294015 L206.617099,13.3294015 L206.617099,16.9047163 L206.617099,16.9047163 Z" id="Shape"></path>
            <path d="M231.001045,40.1440489 C231.525482,41.5506671 232.260206,42.7581106 233.197951,43.7633874 C234.139543,44.7682367 235.25552,45.5508311 236.558704,46.1111703 C237.865735,46.6591145 239.32749,46.9373608 240.936702,46.9373608 C242.521551,46.9373608 243.963645,46.6475744 245.278369,46.0996301 C246.597368,45.5388635 247.713772,44.7481483 248.651517,43.7313313 C249.588835,42.7264819 250.315439,41.5066435 250.840303,40.1004527 C251.364739,38.6904153 251.631018,37.1371942 251.631018,35.4407896 C251.631018,33.7324174 251.364739,32.1791964 250.840303,30.7687315 C250.315439,29.3625407 249.588835,28.1670649 248.651517,27.1737556 C247.713772,26.1765997 246.597368,25.405973 245.278369,24.8695689 C243.963645,24.3335922 242.521551,24.0549185 240.936702,24.0549185 C239.362965,24.0549185 237.921299,24.3335922 236.614268,24.8695689 C235.311084,25.4179405 234.182712,26.1885673 233.233854,27.1934167 C232.272601,28.1986935 231.537449,29.4065643 231.012585,30.8166018 C230.476181,32.22322 230.206483,33.776441 230.194516,35.4843858 C230.206483,37.1846371 230.476181,38.7378582 231.001045,40.1440489 M234.985395,32.111665 C235.319205,31.1260493 235.791924,30.3002862 236.379618,29.640787 C236.963892,28.9812878 237.643053,28.4807864 238.414107,28.1431297 C239.184306,27.8093197 240.010924,27.6306608 240.880711,27.6306608 C241.794521,27.6306608 242.644647,27.8093197 243.439208,28.1431297 C244.229496,28.4807864 244.912931,28.9812878 245.492931,29.640787 C246.060964,30.3002862 246.505901,31.1260493 246.843558,32.111665 C247.177368,33.0930067 247.344059,34.2213786 247.344059,35.4843858 C247.344059,36.7037968 247.177368,37.7966934 246.843558,38.7699142 C246.505901,39.7435624 246.060964,40.5693255 245.481391,41.2484857 C244.900963,41.9319201 244.209835,42.4563565 243.427241,42.8141017 C242.644647,43.1829597 241.794521,43.362046 240.880711,43.362046 C240.010924,43.362046 239.184306,43.1829597 238.414107,42.8021342 C237.643053,42.4362681 236.963892,41.9079849 236.379618,41.2288247 C235.791924,40.5453903 235.319205,39.7191998 234.985395,38.745979 C234.652012,37.776605 234.484466,36.6922567 234.484466,35.4843858 C234.484466,34.2213786 234.652012,33.0930067 234.985395,32.111665" id="Shape"></path>
            <path d="M265.209093,46.2218704 L275.211854,46.2218704 L275.211854,42.6465556 L272.355876,42.6465556 L272.355876,32.19843 C272.355876,30.8046342 272.164822,29.5847958 271.807504,28.5560112 C271.450187,27.5310734 270.93729,26.6805203 270.277791,26.0214486 C269.606752,25.3619494 268.804069,24.8691415 267.866751,24.5477264 C266.917038,24.2216099 265.856625,24.0549185 264.696624,24.0549185 C264.001222,24.0549185 263.333602,24.1344175 262.706586,24.277601 C262.082563,24.4361715 261.478627,24.6349188 260.898627,24.8930766 C260.319054,25.1512344 259.770255,25.4529885 259.246246,25.7991935 C258.709842,26.1565113 258.220881,26.5257966 257.752435,26.9151704 L257.895619,26.9151704 L257.895619,24.7699815 L250.919374,24.7699815 L250.919374,28.3452963 L253.775779,28.3452963 L253.775779,42.6465556 L250.919374,42.6465556 L250.919374,46.2218704 L260.922562,46.2218704 L260.922562,42.6465556 L258.06231,42.6465556 L258.06231,29.7433662 C258.86884,29.1394308 259.715119,28.6355102 260.60884,28.2341688 C261.502562,27.8328274 262.396284,27.6302334 263.290433,27.6302334 C264.827413,27.6302334 265.999808,28.0550825 266.825571,28.9052082 C267.652189,29.7519145 268.065498,31.0033815 268.065498,32.6792703 L268.065498,42.6465556 L265.209093,42.6465556 L265.209093,46.2218704 L265.209093,46.2218704 Z" id="Shape"></path>
            <polygon id="Shape" points="276.64198 16.9047163 279.498385 16.9047163 279.498385 42.646983 275.938884 42.646983 275.938884 46.2222978 286.64474 46.2222978 286.64474 42.646983 283.784916 42.646983 283.784916 36.2114163 288.075294 36.2114163 295.21823 46.2222978 299.985174 46.2222978 299.985174 42.646983 297.740398 42.6153544 292.036136 34.6145991 296.648356 28.3457237 299.504333 28.3457237 299.504333 24.7699815 290.228603 24.7699815 290.228603 28.3457237 291.523239 28.3457237 287.995367 33.128482 283.784916 33.128482 283.784916 16.9286515 283.832359 16.9286515 283.832359 13.3294015 276.64198 13.3294015"></polygon>
            <path d="M73.9784667,29.0092664 C73.9784667,27.5879048 75.1298739,26.4364976 76.549527,26.4364976 C77.9025458,26.4364976 79.0126055,27.4831692 79.1127279,28.812268 C78.6409909,28.2342578 77.9247572,27.8658895 77.1212155,27.8658895 C75.7015624,27.8658895 74.550326,29.0171259 74.550326,30.4384875 C74.550326,30.5051219 74.5516929,30.5702185 74.5566478,30.635486 C74.195968,30.1922822 73.9784667,29.6253778 73.9784667,29.0092664 M19.7090702,47.5891409 L43.7010197,47.5891409 C45.2793993,47.5891409 46.5580951,48.8692036 46.5580951,50.447754 L46.5580951,53.3061962 C46.5580951,54.8845757 45.2793993,56.1646384 43.7010197,56.1646384 L19.7090702,56.1646384 C18.1305198,56.1646384 16.8521657,54.8845757 16.8521657,53.3061962 L16.8521657,50.447754 C16.8521657,48.8692036 18.1305198,47.5891409 19.7090702,47.5891409 M50.5819548,14.3515916 L50.5564971,14.3580842 L50.5564971,15.5744171 C50.5564971,15.5744171 50.2547631,15.088499 49.6878587,14.6709238 C47.9632253,15.375881 46.4578019,16.5049058 45.3017816,17.9295138 L45.2874295,17.9312224 C44.7379525,18.5965406 44.2950905,19.2825326 43.9566222,19.8779702 L43.9200588,19.8827542 C43.4484927,20.7910315 42.5465371,21.4390931 41.4841466,21.5564721 L41.4697946,21.5836384 L18.9737005,21.6803436 C13.6680695,23.2843517 9.53605714,27.5974728 8.18457609,33.0110856 L2.79966732,33.0110856 C2.27872349,31.9931179 1.22111695,31.2960202 0,31.2960202 L0,37.5845931 C1.22111695,37.5845931 2.27872349,36.8874954 2.79966732,35.8695278 L2.89329711,35.8695278 C3.03305836,35.6028196 3.14274873,35.3010856 3.14274873,35.0119951 L3.14274873,34.1544624 L3.35546604,35.8695278 L9.99668835,35.8695278 C9.99668835,35.8695278 10.5683768,36.0125353 8.56900496,36.7270604 C8.257703,36.8381177 7.97510507,37.0320407 7.71779401,37.2813214 C7.82423809,41.4625407 9.54562515,45.2405368 12.2817336,48.0147464 L12.2817336,55.59295 L12.3468302,55.59295 C12.7597922,58.3434104 15.1306078,60.4523018 17.9955426,60.4523018 L45.4160851,60.4523018 C48.5699395,60.4523018 51.1283564,57.8923472 51.1283564,54.7354173 L51.1283564,48.3245106 C52.7942148,44.3655767 56.7070173,41.5864122 61.2678814,41.5864122 C62.0936346,41.5864122 66.789476,41.4181178 70.7420882,41.2704971 L72.26511,38.4421258 L72.26511,41.2132599 L72.4158061,41.2069382 C72.7158315,41.9342776 73.4305275,42.4439449 74.264311,42.4439449 L75.4076878,42.4439449 C76.3858458,42.4439449 77.1991264,41.7405255 77.3720339,40.8114036 C78.1581483,40.5686154 78.9046237,40.2397152 79.6049677,39.836492 C79.6541746,39.84606 79.7033815,39.8539194 79.7541261,39.8602412 C80.4243992,39.4298517 81.2421221,38.8914804 81.4058034,38.72797 L80.7529577,39.8713469 L81.1199592,39.8713469 C82.2236972,39.8713469 83.119331,38.9757131 83.119331,37.8704373 L83.119331,36.6238626 C84.3785491,34.8341327 85.118532,32.6505767 85.118532,30.29548 C85.118532,24.2180867 80.1957921,19.290392 74.1214743,19.290392 C72.9495642,19.290392 67.9805221,19.4333996 67.9805221,19.4333996 C67.9805221,19.4333996 64.2057723,18.7521916 62.3651268,17.3626094 L61.2202122,16.7036129 C60.4134242,15.9730271 59.4988252,15.3599912 58.5015313,14.8932092 C58.5363861,14.6073649 58.5539844,14.3087064 58.5539844,14.0023593 C58.5539844,11.8710857 57.651858,10.1433769 56.8404568,10.1433769 C56.0704031,10.1433769 55.2173127,11.9283229 55.1349595,13.9341873 C54.9394988,13.9100964 54.7426712,13.892669 54.544135,13.8800255 C54.5521653,13.732234 54.5552408,13.5830756 54.5552408,13.4305 C54.5552408,10.9834821 53.5024182,9 52.5558689,9 C51.6094905,9 50.5564971,11.2693263 50.5564971,13.7165151 C50.5564971,13.9341873 50.5660651,14.145196 50.5819548,14.3515916 M57.4121453,22.7205227 C57.4121453,22.0885216 57.9235211,21.5771458 58.5539844,21.5771458 C59.1859855,21.5771458 59.6973613,22.0885216 59.6973613,22.7205227 C59.6973613,23.3526946 59.1859855,23.8640704 58.5539844,23.8640704 C57.9235211,23.8640704 57.4121453,23.3526946 57.4121453,22.7205227" id="Shape"></path>
        </g>
    </g>
</svg>