<?xml version="1.0" encoding="UTF-8" standalone="no"?>
<svg width="85px" height="85px" viewBox="0 0 85 85" version="1.1" xmlns="http://www.w3.org/2000/svg" xmlns:xlink="http://www.w3.org/1999/xlink">
    <title>hippohonk</title>
    <defs></defs>
    <g id="hippohonk" fill-rule="evenodd">
        <g>
            <path d="M73.9784667,37.0092664 C73.9784667,35.5879048 75.1298739,34.4364976 76.549527,34.4364976 C77.9025458,34.4364976 79.0126055,35.4831692 79.1127279,36.812268 C78.6409909,36.2342578 77.9247572,35.8658895 77.1212155,35.8658895 C75.7015624,35.8658895 74.550326,37.0171259 74.550326,38.4384875 C74.550326,38.5051219 74.5516929,38.5702185 74.5566478,38.635486 C74.195968,38.1922822 73.9784667,37.6253778 73.9784667,37.0092664 M19.7090702,55.5891409 L43.7010197,55.5891409 C45.2793993,55.5891409 46.5580951,56.8692036 46.5580951,58.447754 L46.5580951,61.3061962 C46.5580951,62.8845757 45.2793993,64.1646384 43.7010197,64.1646384 L19.7090702,64.1646384 C18.1305198,64.1646384 16.8521657,62.8845757 16.8521657,61.3061962 L16.8521657,58.447754 C16.8521657,56.8692036 18.1305198,55.5891409 19.7090702,55.5891409 M50.5819548,22.3515916 L50.5564971,22.3580842 L50.5564971,23.5744171 C50.5564971,23.5744171 50.2547631,23.088499 49.6878587,22.6709238 C47.9632253,23.375881 46.4578019,24.5049058 45.3017816,25.9295138 L45.2874295,25.9312224 C44.7379525,26.5965406 44.2950905,27.2825326 43.9566222,27.8779702 L43.9200588,27.8827542 C43.4484927,28.7910315 42.5465371,29.4390931 41.4841466,29.5564721 L41.4697946,29.5836384 L18.9737005,29.6803436 C13.6680695,31.2843517 9.53605714,35.5974728 8.18457609,41.0110856 L2.79966732,41.0110856 C2.27872349,39.9931179 1.22111695,39.2960202 0,39.2960202 L0,45.5845931 C1.22111695,45.5845931 2.27872349,44.8874954 2.79966732,43.8695278 L2.89329711,43.8695278 C3.03305836,43.6028196 3.14274873,43.3010856 3.14274873,43.0119951 L3.14274873,42.1544624 L3.35546604,43.8695278 L9.99668835,43.8695278 C9.99668835,43.8695278 10.5683768,44.0125353 8.56900496,44.7270604 C8.257703,44.8381177 7.97510507,45.0320407 7.71779401,45.2813214 C7.82423809,49.4625407 9.54562515,53.2405368 12.2817336,56.0147464 L12.2817336,63.59295 L12.3468302,63.59295 C12.7597922,66.3434104 15.1306078,68.4523018 17.9955426,68.4523018 L45.4160851,68.4523018 C48.5699395,68.4523018 51.1283564,65.8923472 51.1283564,62.7354173 L51.1283564,56.3245106 C52.7942148,52.3655767 56.7070173,49.5864122 61.2678814,49.5864122 C62.0936346,49.5864122 66.789476,49.4181178 70.7420882,49.2704971 L72.26511,46.4421258 L72.26511,49.2132599 L72.4158061,49.2069382 C72.7158315,49.9342776 73.4305275,50.4439449 74.264311,50.4439449 L75.4076878,50.4439449 C76.3858458,50.4439449 77.1991264,49.7405255 77.3720339,48.8114036 C78.1581483,48.5686154 78.9046237,48.2397152 79.6049677,47.836492 C79.6541746,47.84606 79.7033815,47.8539194 79.7541261,47.8602412 C80.4243992,47.4298517 81.2421221,46.8914804 81.4058034,46.72797 L80.7529577,47.8713469 L81.1199592,47.8713469 C82.2236972,47.8713469 83.119331,46.9757131 83.119331,45.8704373 L83.119331,44.6238626 C84.3785491,42.8341327 85.118532,40.6505767 85.118532,38.29548 C85.118532,32.2180867 80.1957921,27.290392 74.1214743,27.290392 C72.9495642,27.290392 67.9805221,27.4333996 67.9805221,27.4333996 C67.9805221,27.4333996 64.2057723,26.7521916 62.3651268,25.3626094 L61.2202122,24.7036129 C60.4134242,23.9730271 59.4988252,23.3599912 58.5015313,22.8932092 C58.5363861,22.6073649 58.5539844,22.3087064 58.5539844,22.0023593 C58.5539844,19.8710857 57.651858,18.1433769 56.8404568,18.1433769 C56.0704031,18.1433769 55.2173127,19.9283229 55.1349595,21.9341873 C54.9394988,21.9100964 54.7426712,21.892669 54.544135,21.8800255 C54.5521653,21.732234 54.5552408,21.5830756 54.5552408,21.4305 C54.5552408,18.9834821 53.5024182,17 52.5558689,17 C51.6094905,17 50.5564971,19.2693263 50.5564971,21.7165151 C50.5564971,21.9341873 50.5660651,22.145196 50.5819548,22.3515916 M57.4121453,30.7205227 C57.4121453,30.0885216 57.9235211,29.5771458 58.5539844,29.5771458 C59.1859855,29.5771458 59.6973613,30.0885216 59.6973613,30.7205227 C59.6973613,31.3526946 59.1859855,31.8640704 58.5539844,31.8640704 C57.9235211,31.8640704 57.4121453,31.3526946 57.4121453,30.7205227" id="Shape"></path>
        </g>
    </g>
</svg>