<?xml version="1.0" encoding="UTF-8" standalone="no"?>
<svg width="63px" height="64px" viewBox="0 0 63 64" version="1.1" xmlns="http://www.w3.org/2000/svg" xmlns:xlink="http://www.w3.org/1999/xlink">
    <defs></defs>
    <g id="spotify" fill-rule="evenodd">
        <path d="M0,31.677 C-0.001,48.014 12.441,61.202 28.367,63.202 L34.593,63.202 C50.519,61.202 62.961,48.014 62.961,31.676 C62.961,14.29 48.866,-1.77635684e-15 31.481,-1.77635684e-15 C14.094,-7.10542736e-15 0,14.29 0,31.677 Z M45.917,45.406 C45.6461799,45.8507973 45.2094825,46.1695346 44.703296,46.2918599 C44.1971096,46.4141852 43.6630516,46.3300411 43.219,46.058 C35.826,41.54 26.522,40.52 15.564,43.023 C15.0568755,43.1395879 14.5242039,43.0497322 14.0833881,42.7732375 C13.6425722,42.4967427 13.3297973,42.0563056 13.214,41.549 C13.0974687,41.041595 13.1875957,40.5086752 13.4644982,40.0678074 C13.7414007,39.6269395 14.1823252,39.3143505 14.69,39.199 C26.682,36.459 36.968,37.639 45.266,42.709 C46.1897325,43.2751159 46.4805719,44.4823231 45.916,45.407 L45.917,45.406 Z M49.769,36.834 C49.0597652,37.9885835 47.5492044,38.3502229 46.394,37.642 C37.934,32.442 25.034,30.935 15.024,33.974 C13.726968,34.3654365 12.3575779,33.6344692 11.961,32.339 C11.571,31.039 12.301,29.672 13.598,29.279 C25.033,25.809 39.246,27.489 48.963,33.459 C50.1172277,34.1685684 50.4784021,35.6790561 49.77,36.834 L49.769,36.834 Z M50.101,27.908 C39.953,21.882 23.215,21.328 13.528,24.268 C11.9716616,24.7396511 10.3276512,23.8603384 9.85600006,22.304 C9.38434889,20.7476616 10.2636616,19.1036512 11.82,18.632 C22.94,15.257 41.426,15.909 53.108,22.842 C53.7797977,23.2403633 54.2657677,23.8893498 54.4589436,24.6461117 C54.6521195,25.4028735 54.5366676,26.2053829 54.138,26.877 C53.7398192,27.5492767 53.0906437,28.0356184 52.3335612,28.2288282 C51.5764788,28.422038 50.7736391,28.3062552 50.102,27.907 L50.101,27.908 Z"></path>
    </g>
</svg>