<?xml version="1.0" encoding="UTF-8" standalone="no"?>
<svg width="190px" height="275px" viewBox="0 0 190 275" version="1.1" xmlns="http://www.w3.org/2000/svg" xmlns:xlink="http://www.w3.org/1999/xlink">
    <g id="soundonsound" fill-rule="evenodd">
        <g  transform="translate(95.000000, 137.500000) scale(1, -1) translate(-95.000000, -137.500000) ">
            <path d="M0,137.5 L0,0 L95,0 L190,0 L190,137.5 L190,275 L95,275 L0,275 L0,137.5 L0,137.5 Z M181.8,146.5 C182,80.5 181.8,22.3 181.5,17.3 L180.8,8 L94.4,8 L8,8 L8,136.8 C8,207.7 8.3,266 8.7,266.3 C9,266.7 48,266.9 95.4,266.7 L181.5,266.5 L181.8,146.5 L181.8,146.5 Z" id="Shape"></path>
            <path d="M36.3,250.9 C30.7,249.3 28.5,243.5 31.1,237.6 C31.7,236.3 34.4,234 37.1,232.5 C43.9,228.9 45.2,227.3 44,224.9 C42.6,222.3 37.4,222.3 35.8,225 C34.3,227.3 32.1,227.6 29.5,225.6 C27.7,224.3 27.7,224 29,221.5 C30.9,218 34.9,216 40,216 C48.4,216 54,222 52,229 C50.7,233.4 49.4,234.8 43.8,237.6 C38.6,240.2 37,242.4 38.9,244.3 C39.8,245.2 40.6,245.1 42.1,244.1 C43.8,243.1 44.8,243.1 47.1,244 C50.6,245.5 50.7,246 47.8,248.7 C45,251.3 40.5,252.1 36.3,250.9 L36.3,250.9 Z" id="Shape"></path>
            <path d="M147,251.3 C143.6,250.7 140.2,247.4 139.5,243.9 C138.5,239.6 141.3,235.5 147.8,231.7 C152.3,229.1 153.5,227.8 153.5,225.9 C153.5,222.5 148.7,222 145.4,225.1 C143.3,227 142.8,227.1 140,226 C136.3,224.5 136.3,223.8 139.8,219.9 C142.1,217.3 143.6,216.7 148,216.2 C163.6,214.7 167.4,230.7 153.1,238 C147.9,240.6 146.6,242.4 148.5,244 C149.8,245.1 150.4,245.1 151.7,243.7 C153.1,242.3 153.6,242.3 156.6,243.7 C159.4,245.1 159.7,245.6 158.9,247.2 C157.9,249 152.1,252.2 150.3,251.9 C149.9,251.8 148.4,251.5 147,251.3 L147,251.3 Z" id="Shape"></path>
            <path d="M96,249.8 C96,249.2 93.8,246.3 91,243.5 C85.6,237.7 84.4,234.8 85.5,229.2 C86,226.5 87.5,224.2 91.2,220.8 C97.8,214.7 97.8,212.5 91.2,206.3 C82.9,198.4 82.9,192.2 91,183.5 C94,180.4 96,177.4 96,176 C96,174.6 94,171.6 91,168.5 C83,159.9 82.9,153.8 91,146.1 C97.8,139.6 97.9,137.8 91.9,132.3 C88.1,128.9 85,123.7 85,121 C85,120.5 86.6,120 88.5,120 C91.6,120 92.9,120.9 97.5,125.8 C106.9,135.7 107,141.7 97.9,150.9 C95.2,153.6 93,156.6 93,157.5 C93,158.4 95.4,161.5 98.4,164.4 C107.1,173.1 107,180.1 98,188.2 C95.2,190.7 93,193.5 93,194.4 C93,195.4 95.2,198.5 97.9,201.3 C106.9,210.8 107,215.8 98.4,225.1 C95.4,228.3 93,231.7 93,232.6 C93,233.5 95.2,236.3 98,238.8 C102.3,243 105,247.2 105,250.1 C105,250.6 103,251 100.5,251 C97.8,251 96,250.5 96,249.8 L96,249.8 Z" id="Shape"></path>
            <path d="M31.1,201.4 C19.3,195.3 19.6,175.2 31.5,169.5 C36.8,167 46.4,167.7 50.9,170.9 C60.1,177.5 60.1,193.5 50.9,200.1 C46.5,203.2 36.1,203.9 31.1,201.4 L31.1,201.4 Z M45.7,194.5 C49,192.2 50.5,186.2 49,181.6 C47.6,177.1 44.6,175 40,175 C35.4,175 32.4,177.1 31,181.5 C29.5,186 30.5,190.2 33.7,193.4 C36.7,196.4 42.3,196.9 45.7,194.5 L45.7,194.5 Z" id="Shape"></path>
            <path d="M141.5,201.6 C129.1,196.2 128.9,175.8 141.1,169.4 C145,167.4 153.9,167.4 157.7,169.3 C163.9,172.6 167.3,178.3 167.3,185.5 C167.3,192.7 163.9,198.4 157.8,201.6 C154.4,203.4 145.5,203.4 141.5,201.6 L141.5,201.6 Z M156.1,193.1 C158.4,190.7 159,189.3 159,185.7 C159,175.8 149.5,171.3 142.8,178 C140,180.8 139.8,181.5 140.2,186.2 C140.6,190.2 141.4,191.9 143.4,193.7 C147.3,197 152.4,196.8 156.1,193.1 L156.1,193.1 Z" id="Shape"></path>
            <path d="M25.2,141.8 C25.5,130 25.7,128.2 27.7,125.4 C32.3,119 43.4,117.4 49.6,122.2 C53.9,125.7 55,129.7 55,143 L55,155 L51,155 L47,155 L47,144.1 C47,138.1 46.6,132 46,130.5 C44.9,127.6 41.8,126.1 38.2,126.8 C34.4,127.5 33,132.3 33,144.5 L33,155 L28.9,155 L24.8,155 L25.2,141.8 L25.2,141.8 Z" id="Shape"></path>
            <path d="M135,142.3 C135,128.3 136,125 141.6,121.3 C145.1,119.1 153.4,119.1 157.7,121.3 C163.2,124.2 164.4,127.8 164.5,142 L164.5,154.5 L160.5,154.5 L156.5,154.5 L156,141.7 C155.5,128.6 155,127.3 151,126.9 C147.9,126.6 146.5,127.2 144.8,129.2 C143.3,130.9 143,133.2 143,143.1 L143,155 L139,155 L135,155 L135,142.3 L135,142.3 Z" id="Shape"></path>
            <path d="M86,104.7 C78,100.5 74.8,90.3 78.9,81.5 C81.1,76.7 83.3,74.6 88.3,72.5 C93.4,70.4 97.8,70.6 103,73.3 C113.5,78.5 116,91.9 108.2,101.2 C103,107.3 93.7,108.8 86,104.7 L86,104.7 Z M100.3,98 C108.2,91.8 104.5,78.5 94.9,78.5 C89,78.5 85.5,82.5 85.5,89.1 C85.5,93.6 85.9,94.5 88.8,97.1 C92.6,100.5 96.6,100.9 100.3,98 L100.3,98 Z" id="Shape"></path>
            <path d="M26,89 L26,72 L30,72 L33.9,72 L34.2,81.6 L34.5,91.2 L40,81.6 L45.5,72 L50.3,72 L55,72 L55,89 L55,106 L51,106 L47,106 L47,95.8 C46.9,83.9 47,83.9 39.4,97.8 L34.9,106 L30.4,106 L26,106 L26,89 L26,89 Z" id="Shape"></path>
            <polygon id="Shape" points="135 89 135 72 139 72 142.9 72 143.2 82.1 143.5 92.2 149.3 82.1 155.2 72 159.6 72 164 72 164 89 164 106 160 106 156.1 106 155.8 96 155.5 85.9 150 95.9 144.5 106 139.8 106 135 106"></polygon>
            <path d="M26,41 L26,23.8 L35.8,24.2 C46.7,24.5 50.5,26.3 53.7,32.3 C55.9,36.5 55.9,45.5 53.7,49.7 C50.5,55.7 46.7,57.5 35.8,57.8 L26,58.2 L26,41 L26,41 Z M44.5,48.5 C46.5,46.6 47,45.1 47,41 C47,34.3 44,31 38,31 L34,31 L34,41 L34,51 L38,51 C41,51 42.7,50.3 44.5,48.5 L44.5,48.5 Z" id="Shape"></path>
            <polygon id="Shape" points="80 41 80 24 84 24 87.9 24 88.2 34.3 88.5 44.5 94.4 34.3 100.2 24 104.6 24 109 24 109 41 109 58 105 58 101 58 101 47.8 101 37.5 95.2 47.8 89.5 58 84.8 58 80 58"></polygon>
            <path d="M136,41.1 L136,24 L144.9,24 C154.8,24 158.5,25.6 162.7,31.9 C165.9,36.6 165.9,45.4 162.8,50 C158.5,56.3 155.8,57.5 145.4,57.8 L136,58.2 L136,41.1 L136,41.1 Z M154.1,48.1 C156.2,45.9 157,44.2 157,41.5 C157,34.8 153.7,31.1 147.8,31 L144,31 L144,41 L144,51 L147.6,51 C150.2,51 151.9,50.2 154.1,48.1 L154.1,48.1 Z" id="Shape"></path>
        </g>
    </g>
</svg>